<svg id="Capa_1" enable-background="new 0 0 512 512" height="512" viewBox="0 0 512 512" width="512" xmlns="http://www.w3.org/2000/svg"><g><path d="m274.336 18.336v489.757c0 2.158-1.749 3.907-3.907 3.907h-28.859c-2.158 0-3.907-1.749-3.907-3.907v-489.285c0-10.116 7.991-18.683 18.107-18.806 5.154-.063 9.826 2.001 13.195 5.369 3.319 3.318 5.371 7.902 5.371 12.965z" fill="#aa6a51"/><g fill="#aa6a51"><path d="m369.218 512h-30.718c-1.642 0-3.109-1.027-3.671-2.57l-71.554-196.574 34.46-12.543 75.154 206.445c.928 2.547-.959 5.242-3.671 5.242z"/><path d="m248.725 312.856-71.554 196.574c-.562 1.543-2.029 2.57-3.671 2.57h-30.718c-2.712 0-4.599-2.695-3.671-5.243l75.154-206.445z"/></g><path d="m200.637 92.364v-20.281c0-13.409 10.87-24.279 24.279-24.279h62.167c13.409 0 24.279 10.87 24.279 24.279v20.281l-55.852 9z" fill="#0ed2b3"/><g fill="#87523e"><path d="m237.664 351.807h36.672v106.912h-36.672z"/><path d="m316.481 351.807h-39.028l38.917 106.912h39.032z"/><path d="m156.598 458.719h39.032l38.917-106.912h-39.028z"/></g><path d="m131.32 405.516v-16.082l127.979-8 121.381 8v16.082c0 15.728-12.75 28.479-28.479 28.479h-192.401c-15.729 0-28.48-12.75-28.48-28.479z" fill="#0ed2b3"/><path d="m72.807 107.817v266.165c0 8.534 6.918 15.453 15.453 15.453h335.482c8.534 0 15.453-6.918 15.453-15.453v-266.165c0-8.534-6.918-15.453-15.453-15.453h-335.482c-8.535 0-15.453 6.919-15.453 15.453z" fill="#e8edf2"/><path d="m423.741 92.364h-25.502c8.534 0 15.453 6.919 15.453 15.453v266.165c0 8.534-6.918 15.453-15.453 15.453h25.502c8.534 0 15.453-6.919 15.453-15.453v-266.165c-.001-8.534-6.919-15.453-15.453-15.453z" fill="#c5d3dd"/><path d="m287.084 47.804h-25.502c13.409 0 24.279 10.87 24.279 24.279v20.281h25.502v-20.281c0-13.409-10.87-24.279-24.279-24.279z" fill="#01998d"/><path d="m355.178 389.435v16.081c0 15.729-12.75 28.479-28.479 28.479h25.502c15.729 0 28.479-12.75 28.479-28.479v-16.082z" fill="#01998d"/><g><g><path d="m497.879 91.729c-4.753-2.744-12.746-.351-20.658 9.097-26.718 31.904-84.004 106.974-107.295 158.712-3.395 7.541-1.155 14.355-2.905 20.698l9.527 22.742 21.223-3.505c36.305-36.852 86.209-140.517 102.559-185.306 4.225-11.575 2.302-19.694-2.451-22.438z" fill="#fe9738"/><path d="m497.879 91.729c-2.124-1.226-4.898-1.418-8.02-.421-.088 3.413-1.333 8.293-4.081 14.458-19.222 43.13-69.692 148.052-101.459 187.524l17.994 4.276c4.726-4.797 9.605-4.685 14.554-11.593 33.069-46.161 69.241-132.848 83.463-171.806 4.225-11.575 2.302-19.693-2.451-22.438z" fill="#fe7701"/><path d="m370.211 258.918c-3.527 7.773-6.306 15.034-8.104 21.55l40.205 23.212c4.744-4.815 9.643-10.852 14.611-17.793z" fill="#01c0fa"/><path d="m397.62 274.742c-4.678 7.109-9.15 13.392-13.301 18.549 2.19 1.264 17.27 9.971 17.994 10.389 5.226-5.306 10.276-11.737 14.611-17.793z" fill="#0290cf"/><path d="m402.312 303.68-40.205-23.212c-17.143 3.426-35.46 20.423-27.606 43.45 2.707 7.936 4.132 19.015-3.782 27.406-1.993 2.113-.885 5.597 1.984 6.046 60.448 9.461 73.665-38.555 69.609-53.69z" fill="#596c76"/><path d="m402.312 303.68-15.948-9.208c1.056 13.013-14.496 56.713-56.601 58.787-.298 1.845.85 3.784 2.941 4.111 60.447 9.46 73.664-38.555 69.608-53.69z" fill="#465a61"/></g><path d="m102.919 181.335-50.683 10.48c-6.797 0-1.925-4.97-1.925 1.827v36.057c0 6.797 4.421 3.014 11.218 3.014l41.39 9.292 87.585 34.794 9.168-63.999-9.168-66.26z" fill="#01c0fa"/><path d="m52.236 219.559c-6.797 0-12.307-5.51-12.307-12.306v22.445c0 6.797 5.51 12.307 12.307 12.307h50.683l87.585 34.794v-22.446l-87.585-34.794z" fill="#0290cf"/><path d="m18.835 223.068h21.095v-22.796h-21.095c-5.247 0-9.5 4.253-9.5 9.5v3.796c0 5.247 4.253 9.5 9.5 9.5z" fill="#c365af"/><path d="m52.236 181.335c-6.797 0-12.307 5.51-12.307 12.307v36.057c0 6.797 5.51 12.307 12.307 12.307h50.683v-60.67h-50.683z" fill="#fe9738"/><path d="m52.236 219.559c-6.797 0-12.307-5.51-12.307-12.306v22.445c0 6.797 5.51 12.307 12.307 12.307h50.683v-22.446z" fill="#fe7701"/><path d="m235.385 230.236-20.885 6.97-10.035-24.405 10.035-26.667 20.885 6.97c7.989 2.666 13.377 10.144 13.377 18.566s-5.388 15.9-13.377 18.566z" fill="#c365af"/><path d="m202.502 130.384c-6.626 0-11.998 5.372-11.998 11.998v138.576c0 6.626 5.372 11.998 11.998 11.998s11.998-5.371 11.998-11.998v-138.576c0-6.627-5.372-11.998-11.998-11.998z" fill="#fe9738"/><path d="m202.502 266.39c-6.626 0-11.998-5.372-11.998-11.998v26.566c0 6.626 5.372 11.998 11.998 11.998s11.998-5.371 11.998-11.998v-26.566c0 6.626-5.372 11.998-11.998 11.998z" fill="#fe7701"/><path d="m76.921 310.9h-4.396c-6.075 0-11-4.925-11-11v-57.895h26.395v57.895c.001 6.075-4.924 11-10.999 11z" fill="#01c0fa"/><g fill="#8ac9fe"><path d="m313.483 219.396h-22.797c-4.268 0-7.726-3.459-7.726-7.726s3.459-7.726 7.726-7.726h22.797c4.268 0 7.726 3.459 7.726 7.726s-3.459 7.726-7.726 7.726z"/><g><path d="m279.607 191.461c-1.977 0-3.955-.755-5.464-2.263-3.017-3.018-3.017-7.909 0-10.928l17.838-17.838c3.018-3.016 7.909-3.016 10.928 0 3.017 3.018 3.017 7.909 0 10.928l-17.838 17.838c-1.51 1.508-3.488 2.263-5.464 2.263z"/><path d="m297.445 265.17c-1.977 0-3.955-.755-5.464-2.263l-17.838-17.838c-3.017-3.018-3.017-7.909 0-10.928 3.018-3.016 7.909-3.016 10.928 0l17.838 17.838c3.017 3.018 3.017 7.909 0 10.928-1.51 1.508-3.487 2.263-5.464 2.263z"/></g></g></g></g></svg>