<svg xmlns="http://www.w3.org/2000/svg" xmlns:xlink="http://www.w3.org/1999/xlink" width="390.094" height="124.677" version="1.1" xml:space="preserve"><desc>Created with Fabric.js 1.6.0-rc.1</desc><g transform="translate(48.25999999999999 38.56) scale(0.12 0.12)" style="stroke:none;stroke-width:1;stroke-dasharray:none;stroke-linecap:butt;stroke-linejoin:miter;stroke-miterlimit:10;fill:none;fill-rule:nonzero;opacity:1"><polyline style="stroke:none;stroke-width:1;stroke-dasharray:none;stroke-linecap:butt;stroke-linejoin:miter;stroke-miterlimit:10;fill:#acf0f2;fill-rule:nonzero;opacity:1" points="152.42 46.29 438.89 46.29 502.51 149.56 256 475.53 9.49 149.59 73.11 46.29 88.6 46.29" transform="matrix(1 0 0 1 0 0)"/><polygon style="stroke:none;stroke-width:1;stroke-dasharray:none;stroke-linecap:butt;stroke-linejoin:miter;stroke-miterlimit:10;fill:#1486a3;fill-rule:nonzero;opacity:1" points="176.48 46.29 73.11 46.29 9.49 149.56 256 467.58 112.87 149.59" transform="matrix(1 0 0 1 0 0)"/><polyline style="stroke:none;stroke-width:1;stroke-dasharray:none;stroke-linecap:butt;stroke-linejoin:miter;stroke-miterlimit:10;fill:#1486a3;fill-rule:nonzero;opacity:1" points="256 475.48 399.13 149.45 335.52 46.08 256 46.08 256 475.48" transform="matrix(1 0 0 1 0 0)"/><polygon style="stroke:none;stroke-width:1;stroke-dasharray:none;stroke-linecap:butt;stroke-linejoin:miter;stroke-miterlimit:10;fill:#fff;fill-rule:nonzero;opacity:1" points="350.06 138.21 338.81 126.96 327.57 138.21 316.32 126.96 305.08 138.21 316.32 149.45 305.08 160.7 316.32 171.94 327.57 160.7 338.81 171.94 350.06 160.7 338.81 149.45" transform="matrix(1 0 0 1 0 0)"/><polygon style="stroke:none;stroke-width:1;stroke-dasharray:none;stroke-linecap:butt;stroke-linejoin:miter;stroke-miterlimit:10;fill:#fff;fill-rule:nonzero;opacity:1" points="132.06 23.59 120.82 34.83 109.57 23.59 98.33 34.83 109.57 46.08 98.33 57.32 109.57 68.57 120.82 57.32 132.06 68.57 143.31 57.32 132.06 46.08 143.31 34.83" transform="matrix(1 0 0 1 0 0)"/><path stroke-linecap="round" d="M 443.283 37.92 H 152.419 v 15.694 h 10.087 l -54.085 87.887 H 96.966 v 15.694 h 10.665 L 228.732 426.31 L 25.328 157.195 h 55.943 v -15.694 H 23.47 l 54.023 -87.887 h 11.102 V 37.92 H 68.719 L 0 149.714 l 256 338.7 l 256 -338.66 L 443.283 37.92 z M 488.509 141.501 h -42.087 v 15.694 H 486.7 l -203.439 269.13 l 121.108 -269.13 h 26.359 v -15.694 h -27.149 l -54.085 -87.887 h 85.011 L 488.509 141.501 z M 263.324 141.501 V 53.614 h 67.496 l 54.084 87.887 h -25.323 v 15.694 h 27.348 L 263.324 431.873 V 157.195 h 32.435 v -15.694 H 263.324 z M 181.18 53.614 h 66.45 v 87.887 H 127.095 L 181.18 53.614 z M 247.63 157.195 v 272.353 L 125.071 157.195 H 247.63 z" transform="matrix(1 0 0 1 0 0)" style="stroke:none;stroke-width:1;stroke-dasharray:none;stroke-linecap:butt;stroke-linejoin:miter;stroke-miterlimit:10;fill:#000;fill-rule:nonzero;opacity:1"/><polygon style="stroke:none;stroke-width:1;stroke-dasharray:none;stroke-linecap:butt;stroke-linejoin:miter;stroke-miterlimit:10;fill:#fff;fill-rule:nonzero;opacity:1" points="231.94 236.71 216.24 236.71 216.24 188.58 200.55 188.58 200.55 172.89 231.94 172.89" transform="matrix(1 0 0 1 0 0)"/><rect style="stroke:none;stroke-width:1;stroke-dasharray:none;stroke-linecap:butt;stroke-linejoin:miter;stroke-miterlimit:10;fill:#fff;fill-rule:nonzero;opacity:1" width="15.69" height="32.44" x="216.25" y="252.4" rx="0" ry="0" transform="matrix(1 0 0 1 0 0)"/><rect style="stroke:none;stroke-width:1;stroke-dasharray:none;stroke-linecap:butt;stroke-linejoin:miter;stroke-miterlimit:10;fill:#fff;fill-rule:nonzero;opacity:1" width="15.69" height="15.69" x="216.25" y="300.53" rx="0" ry="0" transform="matrix(1 0 0 1 0 0)"/></g><g style="stroke:none;stroke-width:1;stroke-dasharray:none;stroke-linecap:butt;stroke-linejoin:miter;stroke-miterlimit:10;fill:none;fill-rule:nonzero;opacity:1"><path stroke-linecap="round" d="M 18.241 475.307 c 0 64.152 12.571 126.402 37.365 185.021 C 79.547 716.932 113.814 767.76 157.455 811.4 c 43.642 43.641 94.47 77.906 151.073 101.85 c 58.619 24.793 120.869 37.363 185.022 37.363 c 64.15 0 126.4 -12.57 185.02 -37.363 c 56.604 -23.943 107.432 -58.209 151.072 -101.85 c 18.57 -18.57 35.438 -38.449 50.541 -59.514 c 20.387 -28.439 37.555 -59.043 51.307 -91.561 c 0.301 -0.705 0.588 -1.414 0.883 -2.121 c -20.779 27.533 -46.137 51.41 -74.938 70.518 c -48.084 31.9 -105.76 50.5 -167.787 50.5 c -167.848 0 -303.916 -136.068 -303.916 -303.916 S 521.8 171.392 689.647 171.392 c 62.027 0 119.703 18.598 167.787 50.499 c 28.801 19.107 54.158 42.985 74.938 70.518 c -0.295 -0.707 -0.582 -1.416 -0.883 -2.122 c -13.752 -32.516 -30.92 -63.121 -51.307 -91.559 c -15.104 -21.065 -31.971 -40.943 -50.541 -59.514 c -43.641 -43.641 -94.469 -77.907 -151.072 -101.849 C 619.95 12.571 557.7 0 493.548 0 c -64.152 0 -126.402 12.571 -185.021 37.365 c -56.602 23.942 -107.43 58.208 -151.071 101.849 c -43.641 43.641 -77.909 94.469 -101.849 151.072 C 30.813 348.905 18.241 411.155 18.241 475.307 z M 493.55 31.906 c 121.48 0 231.547 48.859 311.633 127.992 c -36.926 -13.549 -75.713 -20.413 -115.533 -20.413 c -45.322 0 -89.305 8.883 -130.727 26.404 c -39.994 16.916 -75.904 41.125 -106.736 71.956 c -30.831 30.831 -55.041 66.742 -71.956 106.735 c -17.52 41.423 -26.404 85.405 -26.404 130.727 c 0 45.322 8.885 89.305 26.404 130.727 c 16.916 39.994 41.125 75.904 71.956 106.736 c 30.832 30.83 66.742 55.041 106.736 71.955 c 41.422 17.521 85.404 26.404 130.727 26.404 c 39.82 0 78.607 -6.863 115.533 -20.412 C 725.097 869.85 615.03 918.709 493.55 918.709 c -244.885 0 -443.403 -198.518 -443.403 -443.402 C 50.147 230.423 248.665 31.906 493.55 31.906 z" transform="translate(10 10) scale(0.11 0.11)" style="stroke:none;stroke-width:1;stroke-dasharray:none;stroke-linecap:butt;stroke-linejoin:miter;stroke-miterlimit:10;fill:#b8a12e;fill-rule:nonzero;opacity:1"/></g><g><text style="stroke:none;stroke-width:1;stroke-dasharray:none;stroke-linecap:butt;stroke-linejoin:miter;stroke-miterlimit:10;fill:#000;fill-rule:nonzero;opacity:1" font-family="ADAMCG PRO" font-size="40" font-weight="normal" transform="translate(254.82 64.83) scale(0.56 0.43)"><tspan style="stroke:none;stroke-width:0;stroke-dasharray:none;stroke-linecap:butt;stroke-linejoin:miter;stroke-miterlimit:4;fill:#000;opacity:1" x="-224.21" y="8.98">A</tspan><tspan style="stroke:none;stroke-width:0;stroke-dasharray:none;stroke-linecap:butt;stroke-linejoin:miter;stroke-miterlimit:4;fill:#000;opacity:1" x="-196.42" y="8.98">s</tspan><tspan style="stroke:none;stroke-width:0;stroke-dasharray:none;stroke-linecap:butt;stroke-linejoin:miter;stroke-miterlimit:4;fill:#000;opacity:1" x="-175.3" y="8.98">h</tspan><tspan style="stroke:none;stroke-width:0;stroke-dasharray:none;stroke-linecap:butt;stroke-linejoin:miter;stroke-miterlimit:4;fill:#000;opacity:1" x="-148" y="8.98">i</tspan><tspan style="stroke:none;stroke-width:0;stroke-dasharray:none;stroke-linecap:butt;stroke-linejoin:miter;stroke-miterlimit:4;fill:#000;opacity:1" x="-137.22" y="8.98">s</tspan><tspan style="stroke:none;stroke-width:0;stroke-dasharray:none;stroke-linecap:butt;stroke-linejoin:miter;stroke-miterlimit:4;fill:#000;opacity:1" x="-116.1" y="8.98">h</tspan><tspan style="stroke:none;stroke-width:0;stroke-dasharray:none;stroke-linecap:butt;stroke-linejoin:miter;stroke-miterlimit:4;fill:#000;opacity:1" x="-88.8" y="8.98"> </tspan><tspan style="stroke:none;stroke-width:0;stroke-dasharray:none;stroke-linecap:butt;stroke-linejoin:miter;stroke-miterlimit:4;fill:#000;opacity:1" x="-76.81" y="8.98">k</tspan><tspan style="stroke:none;stroke-width:0;stroke-dasharray:none;stroke-linecap:butt;stroke-linejoin:miter;stroke-miterlimit:4;fill:#000;opacity:1" x="-49.66" y="8.98">u</tspan><tspan style="stroke:none;stroke-width:0;stroke-dasharray:none;stroke-linecap:butt;stroke-linejoin:miter;stroke-miterlimit:4;fill:#000;opacity:1" x="-22.02" y="8.98">m</tspan><tspan style="stroke:none;stroke-width:0;stroke-dasharray:none;stroke-linecap:butt;stroke-linejoin:miter;stroke-miterlimit:4;fill:#000;opacity:1" x="12.08" y="8.98">a</tspan><tspan style="stroke:none;stroke-width:0;stroke-dasharray:none;stroke-linecap:butt;stroke-linejoin:miter;stroke-miterlimit:4;fill:#000;opacity:1" x="39.87" y="8.98">r</tspan><tspan style="stroke:none;stroke-width:0;stroke-dasharray:none;stroke-linecap:butt;stroke-linejoin:miter;stroke-miterlimit:4;fill:#000;opacity:1" x="65.5" y="8.98"> </tspan><tspan style="stroke:none;stroke-width:0;stroke-dasharray:none;stroke-linecap:butt;stroke-linejoin:miter;stroke-miterlimit:4;fill:#000;opacity:1" x="77.49" y="8.98">m</tspan><tspan style="stroke:none;stroke-width:0;stroke-dasharray:none;stroke-linecap:butt;stroke-linejoin:miter;stroke-miterlimit:4;fill:#000;opacity:1" x="111.59" y="8.98">i</tspan><tspan style="stroke:none;stroke-width:0;stroke-dasharray:none;stroke-linecap:butt;stroke-linejoin:miter;stroke-miterlimit:4;fill:#000;opacity:1" x="122.37" y="8.98">s</tspan><tspan style="stroke:none;stroke-width:0;stroke-dasharray:none;stroke-linecap:butt;stroke-linejoin:miter;stroke-miterlimit:4;fill:#000;opacity:1" x="143.49" y="8.98">h</tspan><tspan style="stroke:none;stroke-width:0;stroke-dasharray:none;stroke-linecap:butt;stroke-linejoin:miter;stroke-miterlimit:4;fill:#000;opacity:1" x="170.79" y="8.98">r</tspan><tspan style="stroke:none;stroke-width:0;stroke-dasharray:none;stroke-linecap:butt;stroke-linejoin:miter;stroke-miterlimit:4;fill:#000;opacity:1" x="196.42" y="8.98">a</tspan></text></g></svg>